<?xml version="1.0" standalone="no"?><svg xmlns="http://www.w3.org/2000/svg" viewBox="0 0 1440 320"><path fill="#212529" fill-opacity="1" d="M0,224L6.2,224C12.3,224,25,224,37,213.3C49.2,203,62,181,74,192C86.2,203,98,245,111,256C123.1,267,135,245,148,224C160,203,172,181,185,149.3C196.9,117,209,75,222,53.3C233.8,32,246,32,258,48C270.8,64,283,96,295,101.3C307.7,107,320,85,332,106.7C344.6,128,357,192,369,197.3C381.5,203,394,149,406,154.7C418.5,160,431,224,443,234.7C455.4,245,468,203,480,197.3C492.3,192,505,224,517,229.3C529.2,235,542,213,554,202.7C566.2,192,578,192,591,170.7C603.1,149,615,107,628,96C640,85,652,107,665,101.3C676.9,96,689,64,702,85.3C713.8,107,726,181,738,176C750.8,171,763,85,775,53.3C787.7,21,800,43,812,74.7C824.6,107,837,149,849,181.3C861.5,213,874,235,886,245.3C898.5,256,911,256,923,261.3C935.4,267,948,277,960,250.7C972.3,224,985,160,997,144C1009.2,128,1022,160,1034,176C1046.2,192,1058,192,1071,197.3C1083.1,203,1095,213,1108,208C1120,203,1132,181,1145,154.7C1156.9,128,1169,96,1182,106.7C1193.8,117,1206,171,1218,181.3C1230.8,192,1243,160,1255,128C1267.7,96,1280,64,1292,69.3C1304.6,75,1317,117,1329,122.7C1341.5,128,1354,96,1366,106.7C1378.5,117,1391,171,1403,165.3C1415.4,160,1428,96,1434,64L1440,32L1440,0L1433.8,0C1427.7,0,1415,0,1403,0C1390.8,0,1378,0,1366,0C1353.8,0,1342,0,1329,0C1316.9,0,1305,0,1292,0C1280,0,1268,0,1255,0C1243.1,0,1231,0,1218,0C1206.2,0,1194,0,1182,0C1169.2,0,1157,0,1145,0C1132.3,0,1120,0,1108,0C1095.4,0,1083,0,1071,0C1058.5,0,1046,0,1034,0C1021.5,0,1009,0,997,0C984.6,0,972,0,960,0C947.7,0,935,0,923,0C910.8,0,898,0,886,0C873.8,0,862,0,849,0C836.9,0,825,0,812,0C800,0,788,0,775,0C763.1,0,751,0,738,0C726.2,0,714,0,702,0C689.2,0,677,0,665,0C652.3,0,640,0,628,0C615.4,0,603,0,591,0C578.5,0,566,0,554,0C541.5,0,529,0,517,0C504.6,0,492,0,480,0C467.7,0,455,0,443,0C430.8,0,418,0,406,0C393.8,0,382,0,369,0C356.9,0,345,0,332,0C320,0,308,0,295,0C283.1,0,271,0,258,0C246.2,0,234,0,222,0C209.2,0,197,0,185,0C172.3,0,160,0,148,0C135.4,0,123,0,111,0C98.5,0,86,0,74,0C61.5,0,49,0,37,0C24.6,0,12,0,6,0L0,0Z"></path></svg>