<?xml version="1.0" standalone="no"?><svg xmlns="http://www.w3.org/2000/svg" viewBox="0 0 1440 320"><path fill="#212529" fill-opacity="1" d="M0,96L20,112C40,128,80,160,120,154.7C160,149,200,107,240,112C280,117,320,171,360,213.3C400,256,440,288,480,293.3C520,299,560,277,600,229.3C640,181,680,107,720,117.3C760,128,800,224,840,245.3C880,267,920,213,960,213.3C1000,213,1040,267,1080,261.3C1120,256,1160,192,1200,176C1240,160,1280,192,1320,202.7C1360,213,1400,203,1420,197.3L1440,192L1440,0L1420,0C1400,0,1360,0,1320,0C1280,0,1240,0,1200,0C1160,0,1120,0,1080,0C1040,0,1000,0,960,0C920,0,880,0,840,0C800,0,760,0,720,0C680,0,640,0,600,0C560,0,520,0,480,0C440,0,400,0,360,0C320,0,280,0,240,0C200,0,160,0,120,0C80,0,40,0,20,0L0,0Z"></path></svg>